<svg width="258" height="120" viewBox="0 0 258 120" fill="none" xmlns="http://www.w3.org/2000/svg">
<path d="M28.9644 55.0328L48.3959 65.1712C48.5163 65.2345 48.6503 65.2676 48.7863 65.2676C48.9223 65.2676 49.0563 65.2345 49.1767 65.1712L68.6087 55.0328C68.7458 54.9616 68.8606 54.8541 68.9408 54.7222C69.0209 54.5902 69.0633 54.4387 69.0633 54.2843C69.0633 54.1298 69.0209 53.9784 68.9408 53.8464C68.8606 53.7144 68.7458 53.6069 68.6087 53.5357L49.1767 43.3973C49.0558 43.3349 48.9216 43.3023 48.7855 43.3023C48.6494 43.3023 48.5152 43.3349 48.3943 43.3973L28.9627 53.5357C28.8259 53.6072 28.7113 53.7148 28.6314 53.8469C28.5515 53.979 28.5093 54.1304 28.5095 54.2848C28.5097 54.4391 28.5522 54.5905 28.6324 54.7224C28.7126 54.8543 28.8274 54.9616 28.9644 55.0328V55.0328Z" fill="#E0E0E0"/>
<path d="M68.6087 60.2945L65.393 58.6165L49.9574 66.67C49.5968 66.8581 49.1962 66.9566 48.7894 66.9572C48.3827 66.9578 47.9818 66.8604 47.6206 66.6733L32.1795 58.6167L28.9643 60.2948C28.8272 60.366 28.7123 60.4734 28.6321 60.6054C28.5519 60.7374 28.5095 60.889 28.5095 61.0434C28.5095 61.1979 28.5519 61.3494 28.6321 61.4814C28.7123 61.6134 28.8272 61.7209 28.9643 61.7921L48.3959 71.93C48.5163 71.9933 48.6503 72.0264 48.7863 72.0264C48.9223 72.0264 49.0563 71.9933 49.1767 71.93L68.6087 61.7921C68.7456 61.7208 68.8604 61.6133 68.9405 61.4813C69.0206 61.3493 69.0629 61.1978 69.0629 61.0434C69.0629 60.889 69.0206 60.7376 68.9405 60.6056C68.8604 60.4736 68.7456 60.3661 68.6087 60.2948V60.2945Z" fill="#808686"/>
<path d="M92.7329 50.4023C92.8086 50.4857 92.8667 50.5835 92.9037 50.6899C92.9408 50.7963 92.9561 50.9091 92.9486 51.0215V53.3106C92.9486 53.7956 92.6793 54.0651 92.1408 54.119C91.5468 54.1596 90.9639 54.3007 90.4171 54.5363C89.8224 54.7928 89.2897 55.1739 88.8549 55.6539C88.2089 56.3541 87.8857 57.3775 87.8854 58.7243V64.4609C87.8949 64.5694 87.8804 64.6786 87.8432 64.7809C87.8059 64.8832 87.7467 64.9761 87.6697 65.0531C87.5927 65.1301 87.4998 65.1893 87.3975 65.2265C87.2952 65.2638 87.186 65.2782 87.0775 65.2688H84.6803C84.5718 65.2782 84.4626 65.2638 84.3603 65.2265C84.258 65.1893 84.1651 65.1301 84.0881 65.0531C84.0111 64.9761 83.9519 64.8832 83.9147 64.7809C83.8774 64.6786 83.863 64.5694 83.8724 64.4609V51.2641C83.863 51.1556 83.8774 51.0464 83.9147 50.9441C83.9519 50.8418 84.0111 50.7489 84.0881 50.6719C84.1651 50.5949 84.258 50.5357 84.3603 50.4985C84.4626 50.4612 84.5718 50.4468 84.6803 50.4562H87.0775C87.186 50.4468 87.2952 50.4612 87.3975 50.4985C87.4998 50.5357 87.5927 50.5949 87.6697 50.6719C87.7467 50.7489 87.8059 50.8418 87.8432 50.9441C87.8804 51.0464 87.8949 51.1556 87.8854 51.2641V52.4224C88.3879 51.7553 89.044 51.2194 89.7979 50.8602C90.5338 50.5059 91.3274 50.2866 92.1408 50.2129C92.2473 50.1986 92.3557 50.2081 92.4582 50.2409C92.5606 50.2736 92.6544 50.3288 92.7329 50.4023V50.4023Z" fill="#E0E0E0"/>
<path d="M98.5774 64.8649C97.3675 64.3388 96.3178 63.5026 95.5344 62.441C94.6542 61.2919 94.2144 59.7838 94.2147 57.9165C94.1861 56.4971 94.5546 55.098 95.2786 53.8769C95.9733 52.723 96.976 51.7856 98.174 51.1699C99.4399 50.5219 100.845 50.1937 102.267 50.2139C103.562 50.2063 104.841 50.5063 105.997 51.0894C107.148 51.6661 108.128 52.5339 108.839 53.6065C109.286 54.2392 109.606 54.9526 109.781 55.7072C109.935 56.4967 110.007 57.3 109.997 58.1044C110.009 58.4434 109.904 58.7762 109.701 59.0475C109.602 59.1721 109.474 59.2712 109.329 59.3367C109.184 59.4022 109.025 59.4322 108.866 59.4241H98.2277C98.3033 59.8552 98.476 60.2635 98.7326 60.618C98.9892 60.9726 99.3231 61.2642 99.7089 61.4709C100.493 61.9006 101.373 62.1233 102.267 62.1181C102.911 62.1346 103.552 62.0247 104.153 61.7947C104.673 61.5798 105.148 61.2694 105.553 60.8795C105.727 60.7079 105.956 60.603 106.199 60.5834C106.374 60.5875 106.543 60.6438 106.684 60.745L108.434 61.7686C108.554 61.8174 108.658 61.8986 108.735 62.0033C108.811 62.108 108.856 62.2318 108.866 62.361C108.848 62.5496 108.773 62.7283 108.65 62.8728C106.998 64.722 104.87 65.6465 102.267 65.6464C100.996 65.6433 99.7402 65.3772 98.5774 64.8649V64.8649ZM99.5339 54.55C99.2028 54.7829 98.9248 55.0834 98.7182 55.4315C98.5116 55.7797 98.3811 56.1677 98.3353 56.5699H105.742C105.683 56.0734 105.498 55.6003 105.203 55.1966C104.887 54.7563 104.472 54.3965 103.991 54.1461C103.45 53.8679 102.849 53.7291 102.241 53.7422C101.274 53.7026 100.321 53.9869 99.5339 54.55V54.55Z" fill="#E0E0E0"/>
<path d="M135.327 51.8301C136.359 52.9253 136.876 54.4874 136.875 56.5162V64.4609C136.885 64.5695 136.87 64.6788 136.833 64.7812C136.796 64.8836 136.737 64.9766 136.659 65.0536C136.582 65.1306 136.489 65.1898 136.387 65.227C136.284 65.2641 136.175 65.2784 136.067 65.2688H133.617C133.508 65.2782 133.399 65.2638 133.297 65.2265C133.194 65.1893 133.101 65.13 133.024 65.053C132.947 64.976 132.888 64.8831 132.851 64.7807C132.814 64.6784 132.799 64.5692 132.809 64.4607V56.5165C132.809 55.4936 132.553 54.7396 132.042 54.2542C131.53 53.7688 130.825 53.5264 129.927 53.5269C129.552 53.5204 129.179 53.5954 128.835 53.7465C128.491 53.8976 128.184 54.1213 127.934 54.4023C127.396 54.9858 127.117 55.861 127.099 57.0278V64.4609C127.109 64.5694 127.095 64.6787 127.057 64.781C127.02 64.8834 126.961 64.9763 126.884 65.0534C126.807 65.1304 126.714 65.1896 126.612 65.2269C126.509 65.2641 126.4 65.2785 126.292 65.269H123.841C123.732 65.2786 123.623 65.2643 123.52 65.227C123.418 65.1898 123.325 65.1306 123.248 65.0535C123.171 64.9765 123.112 64.8835 123.075 64.7811C123.037 64.6787 123.023 64.5694 123.033 64.4609V56.5165C123.033 55.4936 122.781 54.7396 122.278 54.2542C121.775 53.7688 121.075 53.5264 120.178 53.5269C119.786 53.5154 119.397 53.5932 119.04 53.7541C118.684 53.9151 118.368 54.1551 118.117 54.456C117.588 55.0756 117.323 56.0676 117.323 57.432L117.296 64.4609C117.296 64.9995 117.027 65.2689 116.488 65.269H114.091C113.982 65.2786 113.873 65.2643 113.77 65.227C113.668 65.1898 113.575 65.1306 113.498 65.0535C113.421 64.9765 113.362 64.8835 113.325 64.7811C113.287 64.6787 113.273 64.5694 113.283 64.4609V51.2641C113.273 51.1556 113.287 51.0463 113.325 50.9439C113.362 50.8415 113.421 50.7485 113.498 50.6715C113.575 50.5945 113.668 50.5352 113.77 50.498C113.873 50.4608 113.982 50.4464 114.091 50.456H116.488C116.596 50.4465 116.706 50.4609 116.808 50.4981C116.91 50.5353 117.003 50.5946 117.08 50.6716C117.157 50.7486 117.217 50.8416 117.254 50.9439C117.291 51.0463 117.306 51.1556 117.296 51.2641V51.8028C117.855 51.3129 118.492 50.9213 119.181 50.6447C119.818 50.3614 120.504 50.2059 121.201 50.187C123.283 50.187 124.873 50.8603 125.968 52.2069C126.534 51.554 127.244 51.0422 128.042 50.7123C128.895 50.3567 129.811 50.178 130.735 50.187C132.763 50.1875 134.294 50.7352 135.327 51.8301Z" fill="#E0E0E0"/>
<path d="M144.349 64.5822C143.145 63.9161 142.138 62.9456 141.427 61.7678C140.722 60.6019 140.349 59.2654 140.349 57.903C140.349 56.5406 140.722 55.2042 141.427 54.0382C142.142 52.8555 143.154 51.8804 144.362 51.2094C146.212 50.1827 148.385 49.9038 150.433 50.4299C152.482 50.9561 154.252 52.2474 155.378 54.0382C156.085 55.199 156.457 56.5324 156.455 57.8915C156.453 59.2507 156.075 60.5827 155.364 61.741C154.24 63.5341 152.472 64.8282 150.423 65.3567C148.374 65.8853 146.2 65.6081 144.349 64.5822V64.5822ZM146.329 54.2674C145.71 54.6248 145.199 55.1408 144.847 55.762C144.496 56.4229 144.311 57.1596 144.308 57.9082C144.306 58.6567 144.486 59.3946 144.834 60.0577C145.173 60.6842 145.681 61.2023 146.302 61.5523C146.766 61.8326 147.281 62.0162 147.818 62.092C148.355 62.1678 148.901 62.1342 149.424 61.9934C149.948 61.8525 150.437 61.6072 150.863 61.2722C151.289 60.9372 151.643 60.5195 151.904 60.0442C152.262 59.3829 152.447 58.6419 152.442 57.8898C152.45 57.1518 152.27 56.4239 151.917 55.7755C151.574 55.1454 151.066 54.6197 150.449 54.2539C149.818 53.8939 149.102 53.7079 148.375 53.7148C147.655 53.7106 146.948 53.9015 146.329 54.2674V54.2674Z" fill="#E0E0E0"/>
<path d="M165.235 65.2957C165.019 65.2957 164.83 65.143 164.669 64.8375L157.774 51.4796C157.708 51.3552 157.671 51.2169 157.667 51.0757C157.667 50.6985 157.9 50.51 158.367 50.5102H161.087C161.29 50.4953 161.493 50.5444 161.667 50.6506C161.841 50.7569 161.977 50.9149 162.057 51.1026L165.208 57.7549L168.359 51.1026C168.438 50.9149 168.574 50.7568 168.748 50.6506C168.922 50.5443 169.125 50.4952 169.328 50.5102H172.075C172.542 50.5102 172.775 50.6987 172.775 51.0757C172.771 51.2169 172.734 51.3552 172.667 51.4796L165.773 64.8375C165.629 65.1434 165.45 65.2961 165.235 65.2957Z" fill="#E0E0E0"/>
<path d="M178.35 64.8649C177.14 64.3387 176.09 63.5026 175.307 62.441C174.427 61.2919 173.987 59.7838 173.987 57.9165C173.959 56.4971 174.327 55.098 175.051 53.8769C175.746 52.723 176.749 51.7856 177.947 51.1699C179.213 50.5219 180.618 50.1937 182.04 50.2139C183.335 50.2063 184.613 50.5064 185.77 51.0894C186.921 51.6658 187.9 52.5336 188.612 53.6065C189.058 54.2392 189.379 54.9526 189.554 55.7072C189.708 56.4967 189.78 57.3 189.77 58.1044C189.782 58.4434 189.677 58.7762 189.474 59.0475C189.374 59.1722 189.247 59.2714 189.101 59.3369C188.956 59.4024 188.797 59.4323 188.638 59.4241H178C178.076 59.8552 178.248 60.2634 178.505 60.618C178.762 60.9726 179.095 61.2642 179.481 61.4709C180.265 61.9005 181.146 62.1233 182.04 62.1181C182.683 62.1345 183.324 62.0246 183.925 61.7947C184.445 61.5799 184.92 61.2695 185.325 60.8795C185.499 60.7077 185.729 60.6028 185.972 60.5834C186.146 60.5875 186.315 60.6438 186.457 60.745L188.207 61.7686C188.327 61.8174 188.431 61.8986 188.507 62.0033C188.583 62.108 188.629 62.2318 188.638 62.361C188.621 62.5496 188.545 62.7283 188.423 62.8728C186.77 64.722 184.642 65.6465 182.039 65.6464C180.769 65.6433 179.513 65.3772 178.35 64.8649V64.8649ZM179.306 54.55C178.975 54.783 178.697 55.0834 178.491 55.4316C178.284 55.7798 178.154 56.1677 178.108 56.5699H185.515C185.457 56.0734 185.271 55.6003 184.977 55.1966C184.66 54.7563 184.245 54.3965 183.765 54.1461C183.224 53.8679 182.622 53.729 182.015 53.7422C181.047 53.7024 180.094 53.9867 179.306 54.55V54.55Z" fill="#E0E0E0"/>
<path d="M199.351 65.0664C199.187 65.2086 198.974 65.2812 198.758 65.2688H196.388C196.28 65.2783 196.17 65.2639 196.068 65.2267C195.966 65.1895 195.873 65.1303 195.796 65.0533C195.719 64.9763 195.659 64.8834 195.622 64.781C195.585 64.6787 195.57 64.5694 195.58 64.4609V45.7162C195.57 45.6076 195.585 45.4983 195.622 45.396C195.659 45.2936 195.718 45.2006 195.795 45.1236C195.872 45.0466 195.965 44.9874 196.068 44.9502C196.17 44.913 196.28 44.8987 196.388 44.9083H198.757C198.865 44.8986 198.975 44.9128 199.077 44.95C199.18 44.9872 199.273 45.0464 199.35 45.1234C199.427 45.2005 199.486 45.2935 199.523 45.3959C199.56 45.4983 199.574 45.6076 199.565 45.7162V51.9914C200.051 51.3939 200.681 50.9303 201.396 50.6444C202.24 50.293 203.148 50.119 204.062 50.1331C205.441 50.1039 206.8 50.4532 207.994 51.1428C209.113 51.8031 210.02 52.7705 210.607 53.9303C211.208 55.1527 211.512 56.4997 211.495 57.8618C211.517 59.2243 211.212 60.5722 210.607 61.7933C210.033 62.9408 209.147 63.9029 208.05 64.5683C206.839 65.2669 205.461 65.6209 204.064 65.5919C203.139 65.5971 202.222 65.4137 201.371 65.0528C200.526 64.6942 199.925 64.2723 199.566 63.7873V64.5144C199.571 64.6164 199.555 64.7184 199.518 64.8136C199.481 64.9088 199.424 64.995 199.351 65.0664V65.0664ZM200.495 60.9192C201.222 61.6643 202.214 62.0367 203.471 62.0363C204.015 62.057 204.557 61.9634 205.063 61.7617C205.569 61.5599 206.026 61.2545 206.407 60.865C206.786 60.465 207.081 59.9933 207.275 59.4777C207.469 58.9621 207.559 58.4129 207.538 57.8623C207.538 56.6055 207.17 55.5906 206.434 54.8178C205.698 54.0449 204.711 53.6588 203.471 53.6594C202.25 53.6594 201.267 54.0455 200.523 54.8178C199.778 55.59 199.405 56.6048 199.405 57.8623C199.404 59.155 199.768 60.1741 200.495 60.9195V60.9192Z" fill="#808686"/>
<path d="M229.783 50.6718C229.857 50.7507 229.915 50.844 229.952 50.9458C229.989 51.0476 230.005 51.1559 229.999 51.2641V63.9479C229.999 66.1026 229.339 67.7902 228.019 69.0109C226.699 70.2316 224.864 70.8421 222.512 70.8424C219.998 70.8424 217.852 70.2499 216.074 69.0648C215.965 69.0081 215.872 68.9235 215.806 68.8194C215.74 68.7154 215.702 68.5957 215.697 68.4725C215.706 68.2865 215.772 68.1078 215.886 67.9607L216.936 66.4264C217 66.3172 217.09 66.2255 217.199 66.1598C217.307 66.094 217.43 66.0562 217.556 66.0498C217.738 66.0561 217.915 66.112 218.067 66.2114C218.666 66.5994 219.32 66.8944 220.007 67.0864C220.724 67.2929 221.468 67.3973 222.215 67.3964C224.746 67.3964 226.012 66.2472 226.012 63.9489V63.7065C224.953 64.5866 223.57 65.0265 221.865 65.0262C220.44 65.0552 219.031 64.7214 217.771 64.0563C216.616 63.4401 215.663 62.5054 215.024 61.3632C214.396 60.2162 214.071 58.9278 214.081 57.6202C214.06 56.3026 214.385 55.0025 215.024 53.8498C215.664 52.7247 216.607 51.8011 217.744 51.1833C219.005 50.4914 220.428 50.1478 221.865 50.1878C223.57 50.1878 224.953 50.6277 226.013 51.5074V51.2641C226.003 51.1556 226.017 51.0463 226.055 50.944C226.092 50.8416 226.151 50.7486 226.228 50.6716C226.305 50.5946 226.398 50.5353 226.5 50.4981C226.603 50.4608 226.712 50.4465 226.82 50.456H229.191C229.299 50.45 229.407 50.466 229.509 50.5031C229.611 50.5402 229.704 50.5976 229.783 50.6718V50.6718ZM224.168 61.1079C224.783 60.7624 225.291 60.2544 225.636 59.6396C225.991 59.026 226.177 58.3291 226.174 57.6202C226.184 56.9033 226.003 56.1968 225.649 55.5729C225.301 54.9643 224.794 54.4618 224.182 54.119C223.546 53.7716 222.832 53.5953 222.107 53.6072C221.567 53.5858 221.028 53.6751 220.523 53.8696C220.018 54.064 219.558 54.3596 219.172 54.7382C218.797 55.1161 218.503 55.5667 218.309 56.0623C218.114 56.5579 218.023 57.0881 218.041 57.6202C218.041 58.8233 218.409 59.7929 219.146 60.529C219.882 61.2651 220.869 61.6331 222.107 61.6329C222.828 61.6413 223.539 61.4603 224.168 61.1079V61.1079Z" fill="#808686"/>
<path d="M83.8737 70.4413H85.6782C86.5252 70.4413 87.1383 70.5681 87.5176 70.8215C87.7083 70.9553 87.861 71.1364 87.9606 71.3471C88.0602 71.5577 88.1032 71.7907 88.0855 72.023C88.0987 72.3638 87.9859 72.6976 87.7688 72.9606C87.5265 73.2239 87.1994 73.3936 86.8446 73.44V73.4837C87.8144 73.6487 88.2993 74.158 88.2993 75.0114C88.3122 75.2638 88.2666 75.5157 88.1662 75.7476C88.0658 75.9795 87.9132 76.1851 87.7204 76.3484C87.254 76.6938 86.6807 76.8636 86.1015 76.8278H83.8721L83.8737 70.4413ZM84.6164 73.1763H85.839C86.2324 73.208 86.6263 73.122 86.9707 72.9294C87.0925 72.83 87.1877 72.702 87.2481 72.5569C87.3084 72.4118 87.3319 72.254 87.3164 72.0976C87.3286 71.9457 87.2994 71.7933 87.2319 71.6567C87.1643 71.5201 87.061 71.4043 86.9329 71.3218C86.5533 71.1364 86.1316 71.0543 85.7103 71.0838H84.6164V73.1763ZM84.6164 73.8056V76.1957H85.95C86.36 76.2244 86.7682 76.1194 87.1134 75.8962C87.2487 75.7827 87.3548 75.6383 87.4229 75.4753C87.4909 75.3122 87.5188 75.1352 87.5044 74.9592C87.5172 74.7916 87.4872 74.6235 87.4172 74.4706C87.3473 74.3178 87.2397 74.1852 87.1045 74.0854C86.7358 73.8731 86.3121 73.7758 85.8877 73.8058L84.6164 73.8056ZM91.7465 73.6352L93.4505 70.4413H94.2545L92.1222 74.351V76.829H91.3706V74.3867L89.2428 70.4413H90.0555L91.7465 73.6352ZM103.145 76.829H102.271L99.942 73.7313L99.2736 74.3256V76.829H98.5305V70.4413H99.2736V73.6078L102.17 70.4413H103.049L100.479 73.2156L103.145 76.829ZM108.575 76.829L107.78 74.7973H105.22L104.433 76.829H103.682L106.207 70.4152H106.831L109.344 76.8292L108.575 76.829ZM107.549 74.129L106.806 72.1498C106.71 71.8994 106.611 71.5921 106.509 71.2279C106.435 71.5403 106.343 71.8481 106.234 72.1498L105.482 74.129H107.549ZM110.759 76.829V70.4413H111.502V76.1563H114.321V76.829H110.759ZM119.502 76.829H115.939V70.4413H119.5V71.101H116.683V73.1588H119.33V73.8142H116.683V76.165H119.501L119.502 76.829ZM121.454 76.829V70.4413H122.197V76.829H121.454ZM129.585 73.574C129.585 74.6288 129.298 75.4349 128.726 75.9924C128.154 76.5498 127.33 76.8287 126.255 76.829H124.486V70.4413H126.443C127.436 70.4413 128.208 70.7166 128.759 71.2672C129.309 71.8177 129.585 72.5867 129.585 73.574ZM128.798 73.6002C128.798 72.767 128.589 72.1394 128.171 71.7171C127.753 71.2949 127.132 71.0837 126.308 71.0835H125.229V76.1868H126.133C127.019 76.1868 127.684 75.969 128.13 75.5335C128.576 75.098 128.798 74.4536 128.798 73.6002V73.6002ZM137.09 73.6263C137.09 74.6491 136.832 75.4531 136.315 76.0382C135.798 76.6232 135.079 76.9159 134.159 76.916C133.218 76.916 132.492 76.6284 131.98 76.053C131.469 75.4777 131.213 74.6657 131.213 73.6172C131.213 72.5773 131.47 71.7711 131.982 71.1988C132.495 70.6265 133.223 70.3404 134.167 70.3404C135.084 70.3404 135.801 70.6317 136.317 71.2142C136.832 71.7967 137.09 72.6008 137.09 73.6265V73.6263ZM132 73.6263C132 74.4914 132.185 75.1475 132.553 75.5947C132.751 75.8227 132.999 76.0018 133.278 76.1183C133.556 76.2347 133.858 76.2852 134.159 76.2659C134.867 76.2659 135.402 76.043 135.763 75.5973C136.124 75.1516 136.305 74.4947 136.305 73.6268C136.305 72.7674 136.125 72.1157 135.765 71.6716C135.405 71.2275 134.873 71.0054 134.168 71.0054C133.865 70.9856 133.562 71.0359 133.282 71.1523C133.002 71.2687 132.753 71.4481 132.554 71.6766C132.185 72.1231 132.001 72.7731 132.001 73.6265L132 73.6263ZM145.928 76.829L145.133 74.7973H142.573L141.786 76.829H141.035L143.56 70.4149H144.185L146.696 76.829H145.928ZM144.902 74.129L144.158 72.1498C144.062 71.8994 143.963 71.5921 143.861 71.2279C143.788 71.5403 143.696 71.8481 143.586 72.1498L142.835 74.129H144.902ZM148.112 76.829V70.4413H148.856V76.829H148.112Z" fill="#808686"/>
</svg>
