<svg width="258" height="120" viewBox="0 0 258 120" fill="none" xmlns="http://www.w3.org/2000/svg">
<path fill-rule="evenodd" clip-rule="evenodd" d="M110.773 46V69.046H119.111V73.022H106.333V46H110.773V46ZM134.783 57.465V55.033H138.991V73.023H134.784V70.59C134.217 71.491 133.414 72.199 132.371 72.713C131.329 73.228 130.28 73.485 129.225 73.485C127.86 73.485 126.612 73.235 125.48 72.733C124.377 72.252 123.384 71.5487 122.565 70.667C121.753 69.7901 121.112 68.7692 120.675 67.657C120.219 66.5014 119.99 65.2692 119.998 64.027C119.998 62.767 120.223 61.563 120.674 60.417C121.108 59.2972 121.75 58.2692 122.565 57.387C123.385 56.5059 124.377 55.803 125.48 55.322C126.612 54.82 127.86 54.57 129.225 54.57C130.28 54.57 131.329 54.827 132.371 55.342C133.413 55.857 134.217 56.564 134.784 57.465H134.783ZM134.397 66.228C134.656 65.5236 134.787 64.7785 134.784 64.028C134.784 63.255 134.654 62.522 134.397 61.828C134.156 61.1598 133.789 60.5437 133.317 60.013C132.846 59.4924 132.274 59.0721 131.637 58.777C130.981 58.469 130.254 58.314 129.457 58.314C128.658 58.314 127.937 58.469 127.294 58.777C126.665 59.0757 126.101 59.4957 125.634 60.013C125.163 60.541 124.803 61.1577 124.574 61.827C124.327 62.5339 124.202 63.278 124.206 64.027C124.206 64.799 124.328 65.533 124.573 66.227C124.817 66.923 125.171 67.527 125.635 68.042C126.101 68.5595 126.666 68.9796 127.295 69.278C127.937 69.587 128.658 69.741 129.456 69.741C130.254 69.741 130.981 69.587 131.637 69.278C132.274 68.9832 132.846 68.5628 133.317 68.042C133.789 67.5116 134.156 66.8959 134.397 66.228V66.228ZM142.311 73.022V55.033H153.738V59.174H146.518V73.024H142.311V73.022ZM168.986 57.465V55.033H173.194V73.023H168.986V70.59C168.42 71.491 167.616 72.199 166.573 72.713C165.531 73.228 164.483 73.485 163.427 73.485C162.063 73.485 160.815 73.235 159.683 72.733C158.58 72.252 157.587 71.5487 156.768 70.667C155.956 69.7901 155.314 68.7693 154.877 67.657C154.422 66.5013 154.192 65.2691 154.201 64.027C154.201 62.767 154.426 61.563 154.877 60.417C155.311 59.2973 155.952 58.2693 156.767 57.387C157.587 56.5058 158.58 55.8028 159.683 55.322C160.815 54.82 162.063 54.57 163.427 54.57C164.482 54.57 165.531 54.827 166.573 55.342C167.616 55.857 168.42 56.564 168.986 57.465V57.465ZM168.6 66.228C168.859 65.5236 168.99 64.7785 168.986 64.028C168.986 63.255 168.856 62.522 168.6 61.828C168.359 61.1598 167.992 60.5437 167.52 60.013C167.049 59.4924 166.477 59.0721 165.84 58.777C165.184 58.469 164.456 58.314 163.659 58.314C162.861 58.314 162.14 58.469 161.497 58.777C160.868 59.0757 160.304 59.4957 159.837 60.013C159.366 60.5409 159.005 61.1577 158.776 61.827C158.529 62.534 158.405 63.2781 158.409 64.027C158.409 64.799 158.53 65.533 158.776 66.227C159.02 66.923 159.374 67.527 159.837 68.042C160.303 68.5595 160.868 68.9796 161.497 69.278C162.14 69.587 162.861 69.741 163.659 69.741C164.456 69.741 165.184 69.587 165.84 69.278C166.477 68.9832 167.049 68.5628 167.52 68.042C167.992 67.5116 168.359 66.8959 168.6 66.228V66.228ZM190.063 55.033H194.325L187.42 73.023H182.13L175.224 55.033H179.486L184.775 68.809L190.063 55.033ZM203.503 54.57C209.232 54.57 213.139 59.648 212.405 65.591H198.446C198.446 67.143 200.013 70.143 203.734 70.143C206.934 70.143 209.079 67.328 209.08 67.326L211.923 69.526C209.381 72.239 207.3 73.486 204.041 73.486C198.218 73.486 194.271 69.802 194.271 64.028C194.271 58.805 198.35 54.57 203.502 54.57H203.503ZM198.457 62.464H208.541C208.51 62.118 207.963 57.912 203.469 57.912C198.974 57.912 198.489 62.118 198.457 62.464ZM215.145 73.022V46H219.353V73.022H215.145Z" fill="#E0E0E0"/>
<path fill-rule="evenodd" clip-rule="evenodd" d="M88.626 45.5639C88.6444 45.632 88.6538 45.7023 88.654 45.7729V56.7449C88.654 56.8857 88.6168 57.024 88.5462 57.1459C88.4757 57.2677 88.3742 57.3688 88.252 57.4389L79.043 62.7409V73.2499C79.043 73.5359 78.891 73.7999 78.643 73.9439L59.42 85.0099C59.376 85.0349 59.328 85.0509 59.28 85.0679C59.262 85.0739 59.245 85.0849 59.226 85.0899C59.0916 85.1253 58.9504 85.1253 58.816 85.0899C58.794 85.0839 58.774 85.0719 58.753 85.0639C58.709 85.0479 58.663 85.0339 58.621 85.0099L39.402 73.9439C39.2799 73.8737 39.1785 73.7726 39.1079 73.6508C39.0373 73.529 39.0001 73.3907 39 73.2499V40.3339C39 40.2619 39.01 40.1919 39.028 40.1239C39.034 40.1009 39.048 40.0799 39.056 40.0569C39.071 40.0149 39.085 39.9719 39.107 39.9329C39.122 39.9069 39.144 39.8859 39.162 39.8619C39.185 39.8299 39.206 39.7969 39.233 39.7689C39.256 39.7459 39.286 39.7289 39.312 39.7089C39.341 39.6849 39.367 39.6589 39.4 39.6399H39.401L49.011 34.1069C49.1327 34.0369 49.2706 34 49.411 34C49.5514 34 49.6893 34.0369 49.811 34.1069L59.421 39.6399H59.423C59.455 39.6599 59.482 39.6849 59.511 39.7079C59.537 39.7279 59.566 39.7459 59.589 39.7679C59.617 39.7969 59.637 39.8299 59.661 39.8619C59.678 39.8859 59.701 39.9069 59.715 39.9329C59.738 39.9729 59.751 40.0149 59.767 40.0569C59.775 40.0799 59.789 40.1009 59.795 40.1249C59.8134 40.193 59.8228 40.2633 59.823 40.3339V60.8929L67.831 56.2819V45.7719C67.831 45.7019 67.841 45.6309 67.859 45.5639C67.866 45.5399 67.879 45.5189 67.887 45.4959C67.903 45.4539 67.917 45.4109 67.939 45.3719C67.954 45.3459 67.976 45.3249 67.993 45.3009C68.017 45.2689 68.037 45.2359 68.065 45.2079C68.088 45.1849 68.117 45.1679 68.143 45.1479C68.173 45.1239 68.199 45.0979 68.231 45.0789H68.232L77.843 39.5459C77.9646 39.4758 78.1026 39.4388 78.243 39.4388C78.3834 39.4388 78.5214 39.4758 78.643 39.5459L88.253 45.0789C88.287 45.0989 88.313 45.1239 88.343 45.1469C88.368 45.1669 88.397 45.1849 88.42 45.2069C88.448 45.2359 88.468 45.2689 88.492 45.3009C88.51 45.3249 88.532 45.3459 88.546 45.3719C88.569 45.4109 88.582 45.4539 88.598 45.4959C88.607 45.5189 88.62 45.5399 88.626 45.5639V45.5639ZM87.052 56.2819V47.1579L83.689 49.0939L79.043 51.7689V60.8929L87.053 56.2819H87.052ZM77.442 72.7869V63.6569L72.872 66.2669L59.822 73.7149V82.9309L77.442 72.7869ZM40.602 41.7189V72.7869L58.22 82.9299V73.7159L49.016 68.5069L49.013 68.5049L49.009 68.5029C48.978 68.4849 48.952 68.4589 48.923 68.4369C48.898 68.4169 48.869 68.4009 48.847 68.3789L48.845 68.3759C48.819 68.3509 48.801 68.3199 48.779 68.2919C48.759 68.2649 48.735 68.2419 48.719 68.2139L48.718 68.2109C48.7 68.1809 48.689 68.1449 48.676 68.1109C48.663 68.0809 48.646 68.0529 48.638 68.0209V68.0199C48.628 67.9819 48.626 67.9419 48.622 67.9029C48.618 67.8729 48.61 67.8429 48.61 67.8129V67.8109V46.3299L43.965 43.6539L40.602 41.7199V41.7189ZM49.412 35.7249L41.405 40.3339L49.41 44.9429L57.416 40.3329L49.41 35.7249H49.412ZM53.576 64.4889L58.221 61.8149V41.7189L54.858 43.6549L50.212 46.3299V66.4259L53.576 64.4889ZM78.243 41.1639L70.237 45.7729L78.243 50.3819L86.248 45.7719L78.243 41.1639V41.1639ZM77.442 51.7689L72.796 49.0939L69.433 47.1579V56.2819L74.078 58.9559L77.442 60.8929V51.7689ZM59.02 72.3299L70.763 65.6259L76.633 62.2759L68.633 57.6699L59.422 62.9729L51.027 67.8059L59.02 72.3299V72.3299Z" fill="#E0E0E0"/>
</svg>
