<svg width="258" height="120" viewBox="0 0 258 120" fill="none" xmlns="http://www.w3.org/2000/svg">
<path d="M109.108 39.2853C105.236 39.2853 101.98 41.9519 101.06 45.5417H89.4786C84.9338 45.5417 81.2371 49.2385 81.2371 53.7832C81.2371 56.0536 79.3906 57.904 77.1163 57.904H75.464C74.5448 54.3141 71.2918 51.6475 67.4167 51.6475C63.5455 51.6475 60.2886 54.3141 59.3693 57.904H52.7523C51.8331 54.3141 48.5801 51.6475 44.705 51.6475C40.1206 51.6475 36.3882 55.376 36.3882 59.9643C36.3882 64.5487 40.1167 68.2811 44.705 68.2811C48.5761 68.2811 51.8331 65.6145 52.7523 62.0247H59.3772C60.2965 65.6145 63.5495 68.2811 67.4246 68.2811C71.272 68.2811 74.5052 65.6541 75.4521 62.1H77.1203C79.3906 62.1 81.241 63.9464 81.241 66.2207C81.241 70.7655 84.9378 74.4623 89.4825 74.4623H92.1808C93.1001 78.0521 96.3531 80.7187 100.228 80.7187C104.813 80.7187 108.545 76.9902 108.545 72.4019C108.545 67.8175 104.816 64.0851 100.228 64.0851C96.357 64.0851 93.1001 66.7517 92.1808 70.3415H89.4825C87.2121 70.3415 85.3618 68.4951 85.3618 66.2207C85.3618 63.7404 84.2523 61.5136 82.5129 60.004C84.2563 58.4904 85.3618 56.2675 85.3618 53.7872C85.3618 51.5168 87.2082 49.6664 89.4825 49.6664H101.064C101.983 53.2562 105.236 55.9228 109.112 55.9228C113.696 55.9228 117.428 52.1943 117.428 47.606C117.424 43.0177 113.692 39.2853 109.108 39.2853ZM44.7129 64.1564C42.3989 64.1564 40.5169 62.2743 40.5169 59.9604C40.5169 57.6464 42.3989 55.7643 44.7129 55.7643C47.0269 55.7643 48.9089 57.6464 48.9089 59.9604C48.9089 62.2743 47.0269 64.1564 44.7129 64.1564ZM67.4246 64.1564C65.1106 64.1564 63.2286 62.2743 63.2286 59.9604C63.2286 57.6464 65.1106 55.7643 67.4246 55.7643C69.7386 55.7643 71.6206 57.6464 71.6206 59.9604C71.6206 62.2743 69.7386 64.1564 67.4246 64.1564ZM100.224 68.2019C102.538 68.2019 104.42 70.084 104.42 72.3979C104.42 74.7119 102.538 76.594 100.224 76.594C97.9103 76.594 96.0282 74.7119 96.0282 72.3979C96.0321 70.084 97.9142 68.2019 100.224 68.2019ZM109.108 51.7981C106.794 51.7981 104.912 49.916 104.912 47.6021C104.912 45.2881 106.794 43.406 109.108 43.406C111.422 43.406 113.304 45.2881 113.304 47.6021C113.304 49.916 111.422 51.7981 109.108 51.7981Z" fill="#E0E0E0"/>
<path d="M123.162 57.9673C123.162 57.4681 122.896 57.2343 122.429 57.2343H121.062V54.4687H124.164C125.599 54.4687 126.3 55.1026 126.3 56.3349V56.9689C126.3 57.5038 126.233 57.9357 126.233 57.9357H126.3C126.966 56.4696 128.966 54.0685 132.636 54.0685C136.637 54.0685 138.436 56.2358 138.436 60.5349V67.8373C138.436 68.3366 138.702 68.5704 139.169 68.5704H140.536V71.336H137.335C135.833 71.336 135.199 70.7021 135.199 69.2004V61.2679C135.199 58.8985 134.732 57.0323 132.033 57.0323C129.434 57.0323 127.366 58.7321 126.7 61.1689C126.466 61.8345 126.399 62.6032 126.399 63.4353V71.336H123.166V57.9673H123.162Z" fill="#E0E0E0"/>
<path d="M147.296 58.5657V58.4984C147.296 58.4984 144.396 56.965 144.396 53.6961C144.396 50.4273 146.995 47.3961 151.73 47.3961C156.231 47.3961 159.1 50.0984 159.1 53.7635C159.1 57.2305 156.267 59.3661 156.267 59.3661V59.4335C158.402 60.6657 159.769 62.3022 159.769 64.834C159.769 68.5031 156.437 71.7363 151.635 71.7363C147.201 71.7363 143.433 68.9706 143.433 64.6003C143.429 60.7331 147.296 58.5657 147.296 58.5657ZM151.631 68.7012C154.099 68.7012 156.397 67.0688 156.397 64.735C156.397 62.6667 154.63 61.7672 152.431 60.8678C151.532 60.4993 150.264 60.0001 149.998 60.0001C149.166 60.0001 146.797 61.9337 146.797 64.4339C146.797 67.0688 149.063 68.7012 151.631 68.7012ZM153.366 58.0308C154.167 58.0308 155.866 56.0616 155.866 53.9616C155.866 51.7942 154.131 50.4273 151.734 50.4273C149.166 50.4273 147.665 51.8933 147.665 53.7595C147.665 55.8278 149.432 56.6282 151.532 57.4603C151.999 57.6663 152.966 58.0308 153.366 58.0308Z" fill="#E0E0E0"/>
<path d="M164.9 57.9673C164.9 57.4681 164.635 57.2343 164.167 57.2343H162.8V54.4687H165.903C167.337 54.4687 168.038 55.1026 168.038 56.3349V56.9689C168.038 57.5038 167.971 57.9357 167.971 57.9357H168.038C168.704 56.4696 170.705 54.0685 174.374 54.0685C178.376 54.0685 180.175 56.2358 180.175 60.5349V67.8373C180.175 68.3366 180.44 68.5704 180.908 68.5704H182.275V71.336H179.073C177.572 71.336 176.938 70.7021 176.938 69.2004V61.2679C176.938 58.8985 176.47 57.0323 173.772 57.0323C171.173 57.0323 169.104 58.7321 168.439 61.1689C168.205 61.8345 168.137 62.6032 168.137 63.4353V71.336H164.904V57.9673H164.9Z" fill="#E0E0E0"/>
<path d="M186.102 67.9009H189.403V71.3362H186.102V67.9009Z" fill="#E0E0E0"/>
<path d="M193.868 57.9674C193.868 57.4682 193.603 57.2344 193.135 57.2344H191.768V54.4688H194.934C196.436 54.4688 197.07 55.1027 197.07 56.6044V67.8414C197.07 68.3406 197.335 68.5744 197.803 68.5744H199.17V71.3401H196.004C194.502 71.3401 193.868 70.7061 193.868 69.2044V57.9674Z" fill="#E0E0E0"/>
<path d="M211.14 54.0647C216.176 54.0647 220.241 57.7655 220.241 62.8688C220.241 68.0039 216.172 71.7364 211.14 71.7364C206.104 71.7364 202.07 68 202.07 62.8688C202.07 57.7655 206.104 54.0647 211.14 54.0647ZM211.14 68.9351C214.341 68.9351 216.941 66.3992 216.941 62.8649C216.941 59.3622 214.341 56.8621 211.14 56.8621C207.974 56.8621 205.371 59.3622 205.371 62.8649C205.371 66.4032 207.97 68.9351 211.14 68.9351Z" fill="#E0E0E0"/>
<path d="M195.346 53.4583C193.686 53.4583 192.335 52.1072 192.335 50.447C192.335 48.7868 193.686 47.4357 195.346 47.4357C197.006 47.4357 198.358 48.7868 198.358 50.447C198.358 52.1072 197.006 53.4583 195.346 53.4583ZM195.346 48.8819C194.486 48.8819 193.785 49.5832 193.785 50.443C193.785 51.3028 194.486 52.0042 195.346 52.0042C196.206 52.0042 196.907 51.3028 196.907 50.443C196.907 49.5832 196.206 48.8819 195.346 48.8819Z" fill="#E0E0E0"/>
</svg>
